<?xml version="1.0" standalone="no"?>
<!DOCTYPE svg PUBLIC "-//W3C//DTD SVG 20010904//EN"
 "http://www.w3.org/TR/2001/REC-SVG-20010904/DTD/svg10.dtd">
<svg version="1.0" xmlns="http://www.w3.org/2000/svg"
 width="2278.000000pt" height="2278.000000pt" viewBox="0 0 2278.000000 2278.000000"
 preserveAspectRatio="xMidYMid meet">
<metadata>
Created by potrace 1.14, written by Peter Selinger 2001-2017
</metadata>
<g transform="translate(0.000000,2278.000000) scale(0.100000,-0.100000)"
fill="#000000" stroke="none">
<path d="M11261 22768 c-70 -8 -172 -38 -235 -70 -36 -18 -389 -232 -609 -369
-43 -27 -82 -49 -87 -49 -6 0 -10 -4 -10 -10 0 -5 -4 -10 -10 -10 -5 0 -78
-42 -162 -93 -84 -52 -277 -168 -428 -259 -151 -91 -336 -203 -410 -248 -74
-46 -144 -88 -155 -94 -11 -6 -126 -75 -255 -153 -556 -334 -2311 -1386 -2358
-1414 -15 -9 -193 -116 -397 -239 -203 -122 -460 -277 -570 -343 -110 -66
-247 -149 -305 -184 -58 -35 -112 -68 -120 -73 -8 -5 -73 -44 -145 -86 -71
-43 -175 -106 -230 -140 -93 -57 -933 -560 -1003 -601 -18 -10 -167 -99 -333
-198 -166 -99 -313 -187 -328 -195 -14 -8 -42 -25 -61 -36 -19 -12 -120 -72
-225 -134 -571 -339 -815 -487 -860 -523 -174 -140 -281 -315 -314 -512 -6
-34 -8 -150 -5 -265 14 -563 23 -1831 29 -4145 3 -726 6 -1441 9 -1590 3 -148
7 -1287 11 -2530 3 -1243 8 -2273 10 -2290 20 -121 66 -236 130 -320 68 -89
158 -157 367 -277 112 -64 307 -178 433 -253 127 -76 244 -145 260 -154 17 -9
84 -48 150 -87 117 -69 286 -168 1003 -588 194 -114 366 -215 382 -224 15 -9
75 -44 132 -77 57 -33 111 -64 120 -70 43 -26 135 -80 153 -89 11 -6 63 -37
115 -68 52 -31 113 -66 136 -79 37 -22 267 -157 304 -179 119 -71 221 -130
225 -130 3 0 18 -8 33 -19 15 -10 110 -67 212 -126 238 -139 314 -184 485
-285 77 -45 158 -93 180 -105 22 -13 108 -63 190 -112 83 -49 157 -92 165 -96
8 -4 24 -13 35 -20 11 -7 58 -35 105 -63 47 -28 105 -62 130 -76 25 -14 162
-94 305 -178 143 -84 281 -165 306 -179 25 -14 157 -91 292 -171 228 -134 439
-258 512 -300 17 -9 131 -77 255 -150 124 -73 245 -144 270 -158 25 -14 106
-61 180 -105 185 -110 408 -240 450 -265 115 -65 887 -519 1112 -653 322 -192
368 -214 528 -246 37 -7 179 -7 224 1 142 24 229 66 516 246 46 29 755 459
925 561 209 126 640 386 825 498 85 52 166 101 180 108 14 8 117 70 230 139
288 175 641 387 769 464 123 73 507 306 549 332 15 10 34 21 42 25 8 3 38 21
65 38 28 18 69 43 92 56 23 13 74 44 115 69 40 25 82 50 93 56 11 6 171 102
355 214 184 112 344 208 355 214 27 16 384 230 425 255 8 6 49 30 90 55 41 24
561 337 1155 695 594 357 1186 713 1315 791 129 77 325 195 435 262 110 66
292 174 405 240 280 164 303 181 396 273 119 119 197 266 220 420 10 71 2
4903 -10 5270 -23 730 -25 1581 -12 3685 12 1863 13 1779 -18 1907 -42 175
-118 297 -265 426 -53 47 -180 122 -1201 719 -206 121 -382 224 -390 229 -8 5
-67 39 -130 76 -162 93 -323 187 -480 280 -75 43 -142 82 -150 86 -8 4 -28 15
-45 26 -16 10 -147 86 -290 169 -143 84 -267 156 -275 161 -24 15 -592 347
-630 368 -19 11 -77 46 -129 77 -51 31 -95 56 -96 56 -2 0 -47 26 -102 58 -54
32 -118 70 -143 84 -60 34 -541 315 -660 386 -52 32 -107 64 -122 72 -23 12
-254 147 -387 226 -20 12 -74 44 -121 71 -94 55 -809 477 -852 502 -14 9 -57
34 -95 55 -37 22 -122 72 -188 111 -66 40 -187 112 -270 160 -82 49 -181 107
-220 130 -79 47 -386 228 -855 503 -358 210 -588 346 -973 575 -148 87 -293
172 -322 187 -45 23 -159 67 -198 74 -99 20 -160 23 -246 14z m-328 -1328 c11
-114 14 -398 16 -1335 8 -4933 17 -7910 25 -8120 2 -65 -1 -119 -11 -155 -17
-67 -65 -150 -113 -194 -34 -32 -173 -126 -185 -126 -4 0 -25 -12 -48 -27 -23
-16 -51 -33 -62 -40 -207 -121 -1082 -652 -1693 -1026 -70 -43 -161 -98 -202
-123 -41 -25 -140 -85 -220 -134 -165 -102 -248 -152 -270 -162 -8 -4 -55 -33
-105 -64 -95 -59 -413 -252 -443 -269 -16 -10 -346 -208 -907 -547 -143 -86
-321 -193 -395 -238 -176 -105 -171 -102 -200 -121 -14 -9 -41 -26 -60 -37
-19 -11 -343 -205 -720 -432 -377 -227 -698 -421 -715 -430 -16 -9 -88 -52
-160 -95 -172 -103 -648 -385 -705 -417 -25 -14 -121 -69 -215 -123 -213 -123
-234 -134 -441 -238 -275 -139 -520 -257 -531 -257 -6 0 -10 1549 -10 4665 l0
4665 41 -24 c23 -13 59 -34 82 -47 22 -13 98 -58 168 -99 143 -85 190 -113
226 -133 82 -46 429 -252 452 -268 15 -11 29 -19 32 -19 3 0 60 -33 128 -73
120 -72 222 -132 283 -167 480 -275 666 -382 695 -399 19 -11 42 -24 50 -28
47 -22 222 -131 260 -161 93 -75 149 -155 187 -264 19 -58 25 -99 29 -203 2
-71 6 -852 9 -1735 4 -1647 10 -2273 19 -2370 3 -30 8 -82 10 -116 15 -184 86
-302 219 -364 72 -34 100 -40 185 -44 128 -6 232 32 317 117 59 61 85 104 111
192 16 56 17 142 16 1290 -1 1212 -6 1880 -18 2430 -15 684 -12 732 46 860 67
148 159 230 425 380 66 37 134 75 150 85 17 9 50 28 75 42 77 44 308 177 434
250 67 39 137 80 156 91 19 10 55 31 80 46 25 14 57 33 71 41 70 40 316 183
329 191 43 26 222 129 225 129 2 0 33 18 70 41 37 22 82 49 99 59 17 10 74 42
126 72 52 30 147 86 210 123 129 76 173 102 210 122 14 8 43 25 65 39 22 13
49 29 60 34 11 6 34 19 50 29 40 25 199 117 255 149 25 14 57 33 72 43 14 11
28 19 31 19 12 0 539 314 627 374 96 65 185 181 206 271 13 57 16 168 4 214
-34 135 -132 260 -248 314 -57 26 -77 31 -146 31 -125 0 -125 0 -821 -412 -60
-36 -134 -79 -163 -96 -28 -17 -131 -78 -227 -136 -97 -58 -190 -113 -208
-124 -18 -10 -243 -145 -500 -300 -257 -154 -480 -288 -495 -297 -15 -9 -171
-103 -347 -209 -176 -106 -345 -207 -375 -225 -96 -55 -484 -296 -517 -321
-17 -13 -34 -24 -37 -24 -3 0 -25 -14 -50 -30 -172 -117 -368 -151 -542 -95
-99 31 -141 55 -444 247 -135 85 -348 218 -475 295 -393 239 -654 398 -673
408 -25 14 -242 149 -322 200 -36 22 -137 87 -225 143 -88 56 -186 126 -218
156 l-57 54 52 32 c29 18 70 44 91 57 21 13 52 32 70 42 18 10 228 136 467
281 239 144 512 309 605 365 592 356 1344 810 1365 825 14 9 32 20 40 23 8 4
29 16 45 26 48 29 647 391 680 411 43 25 1010 608 1210 730 94 57 187 113 207
124 21 12 219 131 440 265 222 134 522 315 668 403 146 88 384 232 530 320
146 88 384 232 530 320 146 88 272 164 280 169 398 241 576 346 582 341 4 -4
13 -72 21 -152z m992 79 c6 -4 26 -16 45 -27 19 -10 87 -50 150 -87 63 -38
140 -82 170 -100 30 -17 147 -86 260 -152 1372 -805 1720 -1009 1748 -1024 17
-11 49 -29 70 -40 20 -12 49 -30 64 -40 14 -11 28 -19 31 -19 2 0 116 -66 253
-146 137 -81 263 -155 279 -164 17 -10 145 -85 285 -167 514 -302 850 -499
1050 -615 113 -66 210 -123 215 -128 6 -4 30 -19 55 -32 25 -14 200 -116 390
-228 190 -111 361 -211 380 -222 42 -25 299 -176 355 -209 22 -13 52 -31 68
-39 15 -8 96 -55 180 -105 83 -49 161 -95 172 -101 36 -20 363 -212 402 -237
21 -13 45 -27 53 -31 8 -4 24 -12 35 -19 11 -7 58 -35 105 -62 47 -28 92 -54
102 -60 18 -11 136 -80 179 -105 15 -8 164 -96 333 -195 168 -99 314 -184 324
-190 10 -5 43 -25 75 -44 l56 -35 -34 -23 c-19 -13 -37 -23 -40 -23 -4 0 -30
-15 -58 -33 -55 -36 -482 -296 -807 -492 -107 -65 -248 -150 -313 -189 -112
-67 -136 -82 -207 -123 -16 -10 -105 -63 -197 -119 -92 -55 -265 -159 -383
-229 -118 -71 -256 -154 -307 -186 -124 -79 -181 -100 -278 -105 -153 -6 -206
17 -680 301 -38 23 -90 53 -115 67 -49 27 -857 500 -905 529 -16 11 -37 22
-45 26 -8 4 -59 33 -114 66 -54 32 -139 82 -190 111 -50 29 -210 123 -356 208
-314 184 -434 253 -555 323 -49 29 -178 103 -285 165 -107 62 -208 120 -225
130 -60 34 -331 188 -368 209 -154 86 -354 83 -496 -8 -128 -82 -201 -215
-202 -365 -1 -74 14 -123 52 -181 53 -79 94 -113 249 -204 58 -35 112 -67 120
-72 27 -16 304 -181 335 -199 30 -17 335 -198 387 -229 118 -71 661 -382 823
-471 28 -16 159 -89 292 -163 133 -75 270 -151 305 -170 178 -96 390 -214 448
-247 36 -20 99 -55 140 -77 41 -22 93 -51 115 -63 46 -26 212 -117 330 -180
182 -98 299 -188 365 -284 40 -60 84 -156 99 -221 6 -27 14 -61 18 -75 3 -14
7 -369 9 -790 5 -1309 18 -2813 28 -3155 6 -181 9 -245 22 -413 12 -158 75
-265 189 -318 69 -32 112 -39 235 -39 96 1 111 3 170 31 123 58 187 155 217
334 8 43 9 2400 2 3715 -2 347 0 654 4 683 22 164 118 314 259 405 67 43 157
97 162 97 3 0 44 23 92 50 81 47 393 222 494 278 25 13 59 32 75 42 17 10 51
29 78 44 66 36 113 63 347 194 113 63 225 126 250 140 149 82 605 341 748 424
56 33 105 58 107 56 3 -3 4 -2084 3 -4626 l-3 -4622 -135 66 c-165 80 -186 91
-335 174 -16 9 -57 32 -90 50 -33 18 -170 96 -305 173 -135 77 -263 150 -285
163 -22 12 -112 64 -200 114 -88 51 -180 104 -205 118 -25 14 -85 48 -135 77
-49 28 -110 63 -135 77 -25 14 -189 108 -365 208 -176 101 -334 191 -352 201
-17 10 -50 29 -72 43 -22 15 -42 26 -44 26 -3 0 -120 66 -422 240 -172 99
-401 229 -445 253 -30 16 -59 33 -65 37 -5 4 -26 17 -45 27 -30 17 -326 186
-427 244 -18 11 -50 29 -70 40 -21 12 -51 30 -68 40 -16 11 -37 22 -45 26 -23
11 -685 396 -1095 637 -203 120 -410 242 -460 271 -333 195 -444 260 -475 278
-19 10 -82 47 -140 82 -58 34 -125 73 -150 87 -25 14 -216 126 -425 248 -315
185 -508 296 -830 480 -156 89 -271 162 -328 208 -113 90 -189 209 -233 362
-18 63 -18 238 -21 4870 -2 2643 -1 4811 2 4818 4 10 17 6 52 -14 27 -15 53
-31 58 -35z m-465 -10724 c77 -13 113 -32 543 -282 230 -134 432 -252 450
-262 18 -10 115 -67 217 -126 102 -60 201 -117 220 -128 19 -10 60 -34 90 -52
30 -18 75 -44 100 -58 25 -13 140 -80 255 -147 116 -67 266 -155 335 -195 69
-40 166 -96 215 -125 131 -77 157 -92 185 -107 14 -8 39 -22 55 -32 17 -10
201 -119 410 -241 209 -123 454 -267 545 -320 91 -53 259 -152 374 -219 115
-68 221 -130 236 -139 16 -10 54 -32 87 -51 255 -147 394 -236 441 -284 l52
-53 -175 -109 c-167 -105 -416 -258 -480 -295 -16 -9 -129 -77 -250 -150 -121
-73 -319 -191 -439 -262 -121 -72 -233 -139 -250 -149 -17 -10 -38 -22 -46
-26 -8 -4 -37 -20 -65 -36 -49 -29 -427 -241 -535 -300 -113 -62 -429 -242
-530 -302 -58 -34 -244 -145 -413 -246 -169 -101 -320 -191 -335 -200 -170
-101 -748 -451 -892 -541 -208 -130 -225 -139 -295 -161 -84 -27 -195 -22
-285 12 -25 10 -157 84 -295 167 -137 82 -254 151 -260 153 -5 2 -21 12 -35
21 -14 10 -41 27 -60 37 -19 11 -91 54 -160 95 -69 41 -282 169 -475 283 -522
310 -560 332 -596 353 -19 11 -101 59 -184 107 -82 48 -166 97 -185 107 -19
11 -109 63 -200 116 -91 52 -181 104 -200 115 -19 11 -100 56 -180 102 -174
99 -357 202 -425 240 -27 15 -102 57 -165 93 -142 80 -160 91 -235 132 -33 18
-89 50 -125 70 -101 59 -113 65 -455 245 -164 87 -329 185 -429 256 l-88 63
28 22 c15 12 39 28 53 35 14 8 44 25 66 40 40 26 507 315 685 424 281 172 359
219 1085 657 288 174 1012 607 1040 622 21 12 531 316 995 594 582 349 709
417 808 436 69 14 96 14 172 1z m5830 -3406 c49 -16 132 -59 300 -154 80 -45
168 -95 195 -110 28 -16 140 -79 250 -140 110 -62 220 -123 245 -137 25 -14
61 -34 80 -45 19 -11 62 -35 95 -53 61 -34 452 -251 535 -298 159 -88 220
-122 255 -142 22 -13 60 -34 85 -48 403 -224 415 -232 437 -267 9 -16 18 -34
18 -40 0 -23 -34 -54 -110 -99 -44 -26 -156 -94 -250 -151 -181 -110 -778
-470 -944 -570 -56 -33 -128 -77 -162 -97 -34 -21 -66 -38 -70 -38 -5 0 -9 -4
-9 -10 0 -5 -4 -10 -9 -10 -5 0 -129 -73 -277 -162 -427 -256 -1796 -1079
-1826 -1097 -15 -9 -159 -96 -320 -193 -477 -288 -1666 -1003 -1762 -1060 -49
-29 -104 -62 -123 -73 -18 -11 -174 -105 -348 -210 -173 -104 -336 -203 -362
-219 -27 -16 -61 -37 -78 -46 -16 -9 -140 -84 -275 -165 -134 -81 -257 -155
-272 -164 -15 -9 -82 -50 -150 -91 -68 -41 -132 -80 -143 -86 -11 -6 -89 -52
-173 -103 -84 -50 -158 -91 -163 -91 -5 0 -9 11 -9 25 0 14 0 26 -1 28 -12 42
-26 161 -28 248 -2 63 -4 654 -4 1314 0 890 3 1220 12 1278 22 139 63 230 140
307 42 42 178 145 215 162 14 6 26 15 26 20 0 4 4 8 9 8 8 0 310 182 381 229
14 10 61 39 105 65 94 56 194 117 480 291 386 235 633 384 1760 1060 1251 750
1364 817 1520 904 107 59 475 221 545 239 42 11 131 6 180 -9z m-11536 -40
c28 -12 159 -81 276 -146 52 -29 191 -107 265 -148 129 -72 545 -307 704 -397
97 -55 205 -116 241 -136 36 -19 82 -46 102 -59 21 -12 40 -23 42 -23 2 0 44
-23 93 -51 105 -61 159 -92 233 -132 30 -17 71 -40 90 -52 19 -12 62 -37 95
-55 33 -18 278 -158 545 -310 267 -152 505 -288 530 -302 40 -23 563 -325 600
-347 8 -5 148 -87 310 -182 162 -95 412 -242 555 -327 143 -85 269 -160 280
-166 202 -116 288 -220 319 -384 9 -51 12 -270 9 -917 -3 -1127 -10 -1824 -17
-1855 -3 -14 -11 -52 -17 -85 -6 -33 -13 -63 -15 -67 -3 -4 -22 3 -42 16 -29
18 -302 178 -499 292 -86 50 -591 346 -683 400 -399 235 -673 394 -681 394 -5
0 -9 5 -9 10 0 6 -4 10 -10 10 -5 0 -44 21 -87 46 -43 26 -94 56 -113 67 -19
11 -47 27 -62 36 -70 41 -525 307 -543 317 -11 6 -162 95 -335 196 -547 321
-674 395 -711 416 -20 11 -69 40 -110 65 -41 24 -119 70 -174 102 -55 32 -113
65 -130 75 -16 9 -55 32 -85 50 -60 36 -61 36 -240 140 -69 39 -129 75 -135
79 -5 5 -35 22 -65 38 -30 17 -203 117 -385 223 -181 106 -350 205 -375 219
-25 14 -103 60 -173 101 -71 41 -142 83 -160 94 -18 10 -124 72 -237 139 -112
66 -218 128 -235 137 -16 10 -158 93 -315 185 -157 93 -298 175 -313 184 -16
9 -36 21 -45 26 -9 6 -51 30 -92 54 -41 24 -122 72 -180 106 -58 35 -121 72
-140 83 -190 107 -578 339 -587 351 -17 22 -16 44 4 86 13 28 37 48 101 86 46
27 85 49 87 49 2 0 100 56 155 90 8 5 32 18 52 29 21 11 133 75 249 142 116
66 225 128 243 138 68 38 172 97 188 106 9 6 35 20 56 32 22 12 113 63 203
114 90 51 184 103 209 117 25 14 74 41 110 62 36 20 72 40 80 44 8 3 33 17 55
29 22 13 72 41 110 62 74 40 282 157 350 195 140 79 217 116 264 125 58 12
143 5 195 -16z"/>
</g>
</svg>
